<svg xmlns="http://www.w3.org/2000/svg" width="22" height="21.414" viewBox="0 0 22 21.414"><defs><style>.a{fill:#666;}</style></defs><g transform="translate(0 0)"><g transform="translate(0 0)"><path class="a" d="M21.749,14.631A5.08,5.08,0,0,0,16.031,11.2a5.081,5.081,0,0,0-10.063,0,5.081,5.081,0,0,0-3.11,9.572A5.081,5.081,0,0,0,11,26.683a5.081,5.081,0,0,0,8.142-5.915A5.08,5.08,0,0,0,21.749,14.631ZM17.956,19.4l-.392.127a.86.86,0,0,0-.43,1.322l.242.334a3.362,3.362,0,1,1-5.439,3.952L11.7,24.8a.86.86,0,0,0-1.39,0l-.242.334a3.362,3.362,0,1,1-5.439-3.952l.242-.334a.86.86,0,0,0-.43-1.322L4.044,19.4A3.362,3.362,0,1,1,6.121,13l.392.127a.86.86,0,0,0,1.125-.817V11.9a3.362,3.362,0,1,1,6.723,0v.412a.86.86,0,0,0,1.125.817L15.879,13A3.362,3.362,0,0,1,17.956,19.4Z" transform="translate(0 -6.821)"/><path class="a" d="M179.446,188.146a3.437,3.437,0,1,0,3.437,3.437A3.441,3.441,0,0,0,179.446,188.146Zm0,5.156a1.719,1.719,0,1,1,1.719-1.719A1.721,1.721,0,0,1,179.446,193.3Z" transform="translate(-168.446 -180.355)"/></g></g></svg>