<svg xmlns="http://www.w3.org/2000/svg" width="35" height="34.068" viewBox="0 0 35 34.068"><defs><style>.a{fill:#ba6373;}.b{fill:#fff;}</style></defs><g transform="translate(0 0)"><g transform="translate(0 0)"><path class="a" d="M34.6,19.245a8.082,8.082,0,0,0-9.1-5.462,8.083,8.083,0,0,0-16.009,0A8.084,8.084,0,0,0,4.547,29.011,8.083,8.083,0,0,0,17.5,38.42a8.083,8.083,0,0,0,12.952-9.409A8.082,8.082,0,0,0,34.6,19.245Zm-6.034,7.584-.624.2a1.368,1.368,0,0,0-.684,2.1l.386.531a5.348,5.348,0,1,1-8.653,6.287l-.386-.531a1.368,1.368,0,0,0-2.212,0l-.386.531a5.348,5.348,0,1,1-8.653-6.287l.386-.531a1.368,1.368,0,0,0-.684-2.1l-.624-.2A5.348,5.348,0,1,1,9.738,16.657l.624.2a1.368,1.368,0,0,0,1.789-1.3V14.9a5.348,5.348,0,1,1,10.7,0v.656a1.368,1.368,0,0,0,1.789,1.3l.624-.2a5.348,5.348,0,0,1,3.305,10.172Z" transform="translate(0 -6.821)"/><path class="b" d="M181.477,188.146a5.468,5.468,0,1,0,5.468,5.468A5.474,5.474,0,0,0,181.477,188.146Zm0,8.2a2.734,2.734,0,1,1,2.734-2.734A2.737,2.737,0,0,1,181.477,196.348Z" transform="translate(-163.977 -175.751)"/></g></g></svg>