<svg xmlns="http://www.w3.org/2000/svg" width="53.348" height="50" viewBox="0 0 53.348 50"><defs><style>.a{fill:#ba6373;}</style></defs><path class="a" d="M291.1,288.519h-8.37a1.563,1.563,0,0,0-1.563,1.563v8.441a1.563,1.563,0,0,0,1.563,1.563h8.37a1.563,1.563,0,0,0,1.563-1.563v-8.441A1.563,1.563,0,0,0,291.1,288.519Zm-1.563,8.441h-5.244v-5.316h5.244Zm0,0" transform="translate(-251.871 -258.457)"/><path class="a" d="M53.288,12.852l-2.2-7.694A7.429,7.429,0,0,0,44.252,0H9.1A7.429,7.429,0,0,0,2.259,5.158L.06,12.852a1.563,1.563,0,0,0-.06.429V18.3a6.6,6.6,0,0,0,4.185,6.131V44.252A5.755,5.755,0,0,0,9.934,50H43.415a5.755,5.755,0,0,0,5.748-5.748V24.434A6.6,6.6,0,0,0,53.348,18.3V13.282A1.563,1.563,0,0,0,53.288,12.852ZM5.264,6.017A4.343,4.343,0,0,1,9.1,3.126H44.252a4.344,4.344,0,0,1,3.832,2.891l1.629,5.7H3.635Zm7.906,8.828h6.919V18.3a3.459,3.459,0,1,1-6.919,0Zm10.045,0h6.918V18.3a3.459,3.459,0,1,1-6.918,0Zm10.044,0h6.918V18.3a3.459,3.459,0,1,1-6.918,0ZM3.126,18.3V14.845h6.918V18.3a3.459,3.459,0,1,1-6.918,0ZM15.681,46.874v-9.43h5.245v9.43Zm27.734,0H24.052V35.882a1.563,1.563,0,0,0-1.563-1.563H14.118a1.563,1.563,0,0,0-1.563,1.563V46.874H9.934a2.625,2.625,0,0,1-2.622-2.622v-19.4a6.578,6.578,0,0,0,4.3-2.292,6.573,6.573,0,0,0,10.045,0,6.573,6.573,0,0,0,10.044,0,6.573,6.573,0,0,0,10.044,0,6.58,6.58,0,0,0,4.3,2.292v19.4A2.625,2.625,0,0,1,43.415,46.874Zm3.348-25.111A3.463,3.463,0,0,1,43.3,18.3V14.845h6.918V18.3A3.463,3.463,0,0,1,46.763,21.763Zm0,0" transform="translate(0)"/></svg>