<svg xmlns="http://www.w3.org/2000/svg" width="51.368" height="50" viewBox="0 0 51.368 50"><defs><style>.a{fill:#ba6373;}</style></defs><g transform="translate(0 0)"><g transform="translate(0 0)"><path class="a" d="M50.782,25.056a11.862,11.862,0,0,0-13.35-8.017,11.863,11.863,0,0,0-23.5,0A11.864,11.864,0,0,0,6.674,39.388,11.863,11.863,0,0,0,25.684,53.2a11.863,11.863,0,0,0,19.01-13.81A11.862,11.862,0,0,0,50.782,25.056Zm-8.856,11.13-.916.3a2.007,2.007,0,0,0-1,3.087l.566.779a7.849,7.849,0,1,1-12.7,9.227l-.566-.779a2.007,2.007,0,0,0-3.246,0l-.566.779a7.849,7.849,0,1,1-12.7-9.227l.566-.779a2.007,2.007,0,0,0-1-3.087l-.916-.3a7.849,7.849,0,1,1,4.851-14.93l.916.3a2.007,2.007,0,0,0,2.626-1.908v-.963a7.849,7.849,0,1,1,15.7,0v.963a2.007,2.007,0,0,0,2.626,1.908l.916-.3a7.849,7.849,0,0,1,4.851,14.93Z" transform="translate(0 -6.821)"/><path class="a" d="M184.034,188.146a8.025,8.025,0,1,0,8.025,8.025A8.034,8.034,0,0,0,184.034,188.146Zm0,12.038a4.013,4.013,0,1,1,4.013-4.013A4.017,4.017,0,0,1,184.034,200.184Z" transform="translate(-158.35 -169.954)"/></g></g></svg>