<svg xmlns="http://www.w3.org/2000/svg" width="40.02" height="50" viewBox="0 0 40.02 50"><defs><style>.a{fill:#ba6373;}</style></defs><path class="a" d="M88.81,43.221,85.947,10.982a1.378,1.378,0,0,0-1.37-1.258h-5.89a9.879,9.879,0,0,0-19.755,0h-5.89a1.371,1.371,0,0,0-1.37,1.258L48.81,43.221c0,.041-.01.082-.01.123C48.8,47.014,52.164,50,56.305,50h25.01c4.141,0,7.505-2.986,7.505-6.656A.5.5,0,0,0,88.81,43.221Zm-20-40.46a7.124,7.124,0,0,1,7.117,6.963H61.694A7.124,7.124,0,0,1,68.81,2.761ZM81.315,47.239H56.305c-2.6,0-4.7-1.718-4.744-3.834l2.74-30.91h4.622v4.192a1.38,1.38,0,1,0,2.761,0V12.495H75.927v4.192a1.38,1.38,0,1,0,2.761,0V12.495h4.622L86.06,43.4C86.019,45.521,83.9,47.239,81.315,47.239Z" transform="translate(-48.8 0)"/></svg>