<svg xmlns="http://www.w3.org/2000/svg" width="15.458" height="19.313" viewBox="0 0 15.458 19.313"><defs><style>.a{fill:#666;}</style></defs><path class="a" d="M64.254,16.694,63.148,4.242a.532.532,0,0,0-.529-.486H60.344a3.816,3.816,0,0,0-7.63,0H50.439a.529.529,0,0,0-.529.486L48.8,16.694c0,.016,0,.032,0,.047a2.752,2.752,0,0,0,2.9,2.571h9.66a2.752,2.752,0,0,0,2.9-2.571A.192.192,0,0,0,64.254,16.694ZM56.529,1.066a2.752,2.752,0,0,1,2.749,2.69h-5.5A2.752,2.752,0,0,1,56.529,1.066Zm4.83,17.18H51.7a1.7,1.7,0,0,1-1.833-1.481L50.925,4.826H52.71V6.446a.533.533,0,1,0,1.066,0V4.826h5.5V6.446a.533.533,0,1,0,1.066,0V4.826h1.785l1.062,11.939A1.7,1.7,0,0,1,61.359,18.247Z" transform="translate(-48.8)"/></svg>