<svg xmlns="http://www.w3.org/2000/svg" width="70" height="65.607" viewBox="0 0 70 65.607"><defs><style>.a{fill:#333;}</style></defs><path class="a" d="M294.2,288.519H283.219a2.051,2.051,0,0,0-2.051,2.051v11.076a2.051,2.051,0,0,0,2.051,2.051H294.2a2.051,2.051,0,0,0,2.051-2.051V290.57A2.051,2.051,0,0,0,294.2,288.519ZM292.151,299.6H285.27v-6.975h6.881Zm0,0" transform="translate(-242.727 -249.073)"/><path class="a" d="M69.921,16.864l-2.884-10.1A9.748,9.748,0,0,0,58.064,0H11.936A9.748,9.748,0,0,0,2.963,6.768L.079,16.864A2.051,2.051,0,0,0,0,17.427v6.589a8.653,8.653,0,0,0,5.492,8.045v26a7.551,7.551,0,0,0,7.542,7.542H56.966a7.551,7.551,0,0,0,7.542-7.542v-26A8.654,8.654,0,0,0,70,24.017V17.427A2.051,2.051,0,0,0,69.921,16.864ZM6.908,7.895A5.7,5.7,0,0,1,11.936,4.1H58.064a5.7,5.7,0,0,1,5.028,3.793l2.138,7.482H4.77ZM17.281,19.478h9.078v4.538a4.539,4.539,0,1,1-9.078,0Zm13.18,0h9.078v4.538a4.539,4.539,0,1,1-9.078,0Zm13.179,0h9.078v4.538a4.539,4.539,0,1,1-9.078,0ZM4.1,24.017V19.478h9.078v4.538a4.539,4.539,0,1,1-9.078,0ZM20.576,61.505V49.132h6.882V61.505Zm36.39,0H31.56V47.081a2.051,2.051,0,0,0-2.051-2.051H18.525a2.051,2.051,0,0,0-2.051,2.051V61.505h-3.44a3.445,3.445,0,0,1-3.441-3.441V32.6A8.631,8.631,0,0,0,15.23,29.6a8.625,8.625,0,0,0,13.18,0,8.624,8.624,0,0,0,13.179,0,8.624,8.624,0,0,0,13.179,0A8.633,8.633,0,0,0,60.407,32.6v25.46A3.444,3.444,0,0,1,56.966,61.505Zm4.393-32.949a4.544,4.544,0,0,1-4.539-4.539V19.478H65.9v4.539A4.544,4.544,0,0,1,61.359,28.556Zm0,0" transform="translate(0)"/></svg>